<svg xmlns="http://www.w3.org/2000/svg" viewBox="123.54024553843772 119.72633663366337 627.6817007039464 93.08" style="background-color:#1a1a1a">

  <circle cx="200" cy="200" r="7.366336633663366" fill="#e0dcd6" />
  <path d="M 175.1467567548064 203.0976769076926 A 25.045544554455443 25.045544554455443 0 1 1 224.8532432451936 203.0976769076926 A 3.5296815380994624 3.5296815380994624 0 0 1 217.90112775642478 204.32352244136376 A 18.415841584158414 18.415841584158414 0 1 0 182.09887224357522 204.32352244136376 A 3.5296815380994624 3.5296815380994624 0 0 1 175.1467567548064 203.0976769076926 Z" fill="#edebe8" />
  <path d="M 155.06752865466802 199.5571672418386 A 44.934653465346535 44.934653465346535 0 0 1 244.93247134533198 199.55716724183864 A 4.495677351525707 4.495677351525707 0 0 1 236.07771552368416 201.1184996007805 A 36.095049504950495 36.095049504950495 0 1 0 163.92228447631584 201.1184996007805 A 4.49567735152571 4.49567735152571 0 0 1 155.06752865466802 199.5571672418386 Z" fill="#efeeeb" />
  <path d="M 133.10538313762459 195.68464843293842 A 67.03366336633664 67.03366336633664 0 0 1 266.8946168623754 195.68464843293842 A 5.56513759918687 5.56513759918687 0 0 1 255.93343555385746 197.61740043806745 A 55.984158415841584 55.984158415841584 0 0 0 144.06656444614254 197.61740043806748 A 5.565137599186872 5.565137599186872 0 0 1 133.10538313762459 195.68464843293842 Z" fill="#f4f4f2" />

  <path d="M297.66 207.37L297.66 147.73L313.26 147.73L313.26 207.37L297.66 207.37ZM340.98 146.41L340.98 146.41Q346.50 146.41 351.18 147.85Q355.86 149.29 359.34 152.29Q362.82 155.29 364.74 159.91Q366.66 164.53 366.66 170.89L366.66 170.89L366.66 207.37L351.06 207.37L351.06 173.65Q351.06 166.09 347.40 162.55Q343.74 159.01 335.46 159.01L335.46 159.01Q329.22 159.01 324.18 161.41Q319.14 163.81 316.02 167.47Q312.90 171.13 312.42 175.09L312.42 175.09L312.30 168.97Q312.90 164.77 315.06 160.81Q317.22 156.85 320.88 153.55Q324.54 150.25 329.58 148.33Q334.62 146.41 340.98 146.41ZM392.94 146.41L392.94 146.41Q398.46 146.41 403.14 147.85Q407.82 149.29 411.30 152.29Q414.78 155.29 416.76 159.91Q418.74 164.53 418.74 170.89L418.74 170.89L418.74 207.37L403.14 207.37L403.14 173.65Q403.14 166.09 399.42 162.55Q395.70 159.01 387.42 159.01L387.42 159.01Q381.18 159.01 376.14 161.41Q371.10 163.81 367.98 167.47Q364.86 171.13 364.50 175.09L364.50 175.09L364.26 168.61Q364.86 164.65 367.14 160.69Q369.42 156.73 373.14 153.49Q376.86 150.25 381.84 148.33Q386.82 146.41 392.94 146.41Z M459.94 208.69L459.94 208.69Q451.06 208.69 443.80 204.79Q436.54 200.89 432.28 193.87Q428.02 186.85 428.02 177.61L428.02 177.61Q428.02 168.13 432.34 161.17Q436.66 154.21 444.04 150.31Q451.42 146.41 460.78 146.41L460.78 146.41Q471.10 146.41 477.40 150.55Q483.70 154.69 486.58 161.77Q489.46 168.85 489.46 177.61L489.46 177.61Q489.46 182.89 487.78 188.35Q486.10 193.81 482.62 198.43Q479.14 203.05 473.50 205.87Q467.86 208.69 459.94 208.69ZM464.98 196.69L464.98 196.69Q472.06 196.69 477.22 194.29Q482.38 191.89 485.14 187.57Q487.90 183.25 487.90 177.61L487.90 177.61Q487.90 171.49 485.08 167.23Q482.26 162.97 477.16 160.75Q472.06 158.53 464.98 158.53L464.98 158.53Q455.02 158.53 449.50 163.75Q443.98 168.97 443.98 177.61L443.98 177.61Q443.98 183.37 446.62 187.63Q449.26 191.89 454.00 194.29Q458.74 196.69 464.98 196.69ZM487.90 192.01L487.90 147.73L503.50 147.73L503.50 207.37L488.98 207.37Q488.98 207.37 488.68 205.03Q488.38 202.69 488.14 199.09Q487.90 195.49 487.90 192.01L487.90 192.01Z M515.66 207.37L515.66 147.73L531.26 147.73L531.26 207.37L515.66 207.37ZM558.98 146.41L558.98 146.41Q564.50 146.41 569.18 147.85Q573.86 149.29 577.34 152.29Q580.82 155.29 582.74 159.91Q584.66 164.53 584.66 170.89L584.66 170.89L584.66 207.37L569.06 207.37L569.06 173.65Q569.06 166.09 565.40 162.55Q561.74 159.01 553.46 159.01L553.46 159.01Q547.22 159.01 542.18 161.41Q537.14 163.81 534.02 167.47Q530.90 171.13 530.42 175.09L530.42 175.09L530.30 168.97Q530.90 164.77 533.06 160.81Q535.22 156.85 538.88 153.55Q542.54 150.25 547.58 148.33Q552.62 146.41 558.98 146.41Z M592.62 159.85L592.62 147.73L638.94 147.73L638.94 159.85L592.62 159.85ZM607.98 207.37L607.98 131.41L623.58 131.41L623.58 207.37L607.98 207.37Z M648.10 207.37L648.10 123.73L663.70 123.73L663.70 207.37L648.10 207.37Z M731.78 187.57L731.78 187.57L746.90 187.57Q745.94 193.69 741.80 198.49Q737.66 203.29 730.58 206.05Q723.50 208.81 713.30 208.81L713.30 208.81Q701.90 208.81 693.14 205.15Q684.38 201.49 679.46 194.53Q674.54 187.57 674.54 177.73L674.54 177.73Q674.54 167.89 679.34 160.87Q684.14 153.85 692.72 150.13Q701.30 146.41 712.82 146.41L712.82 146.41Q724.58 146.41 732.38 150.13Q740.18 153.85 743.96 161.35Q747.74 168.85 747.14 180.49L747.14 180.49L690.26 180.49Q690.86 185.05 693.68 188.77Q696.50 192.49 701.36 194.65Q706.22 196.81 712.94 196.81L712.94 196.81Q720.38 196.81 725.36 194.23Q730.34 191.65 731.78 187.57ZM712.10 158.29L712.10 158.29Q703.46 158.29 698.06 162.07Q692.66 165.85 691.10 171.37L691.10 171.37L731.66 171.37Q731.06 165.37 725.96 161.83Q720.86 158.29 712.10 158.29Z" fill="#f4f4f2" />

</svg>