<svg xmlns="http://www.w3.org/2000/svg" viewBox="123.54024553843772 93.7065821721011 152.91950892312457 152.91950892312457" style="background-color:#f4f4f2">

  <circle cx="200" cy="200" r="7.366336633663366" fill="#2e2e2e" />
  <path d="M 175.1467567548064 203.0976769076926 A 25.045544554455443 25.045544554455443 0 1 1 224.8532432451936 203.0976769076926 A 3.5296815380994624 3.5296815380994624 0 0 1 217.90112775642478 204.32352244136376 A 18.415841584158414 18.415841584158414 0 1 0 182.09887224357522 204.32352244136376 A 3.5296815380994624 3.5296815380994624 0 0 1 175.1467567548064 203.0976769076926 Z" fill="#222222" />
  <path d="M 155.06752865466802 199.5571672418386 A 44.934653465346535 44.934653465346535 0 0 1 244.93247134533198 199.55716724183864 A 4.495677351525707 4.495677351525707 0 0 1 236.07771552368416 201.1184996007805 A 36.095049504950495 36.095049504950495 0 1 0 163.92228447631584 201.1184996007805 A 4.49567735152571 4.49567735152571 0 0 1 155.06752865466802 199.5571672418386 Z" fill="#1f1f1f" />
  <path d="M 133.10538313762459 195.68464843293842 A 67.03366336633664 67.03366336633664 0 0 1 266.8946168623754 195.68464843293842 A 5.56513759918687 5.56513759918687 0 0 1 255.93343555385746 197.61740043806745 A 55.984158415841584 55.984158415841584 0 0 0 144.06656444614254 197.61740043806748 A 5.565137599186872 5.565137599186872 0 0 1 133.10538313762459 195.68464843293842 Z" fill="#1a1a1a" />

</svg>